<?xml version="1.0" encoding="UTF-8" standalone="no"?>
<!DOCTYPE svg PUBLIC "-//W3C//DTD SVG 1.1//EN"
 "http://www.w3.org/Graphics/SVG/1.1/DTD/svg11.dtd">
<!-- Generated by graphviz version 2.43.0 (0)
 -->
<!-- Title: regex Pages: 1 -->
<svg width="914pt" height="77pt"
 viewBox="0.00 0.00 914.00 77.00" xmlns="http://www.w3.org/2000/svg" xmlns:xlink="http://www.w3.org/1999/xlink">
<g id="graph0" class="graph" transform="scale(1 1) rotate(0) translate(4 73)">
<title>regex</title>
<polygon fill="white" stroke="transparent" points="-4,4 -4,-73 910,-73 910,4 -4,4"/>
<!-- s0 -->
<g id="node1" class="node">
<title>s0</title>
<ellipse fill="none" stroke="black" cx="27" cy="-18" rx="27" ry="18"/>
<text text-anchor="middle" x="27" y="-14.3" font-family="Times,serif" font-size="14.00">s0</text>
</g>
<!-- s1 -->
<g id="node2" class="node">
<title>s1</title>
<ellipse fill="none" stroke="black" cx="131" cy="-18" rx="27" ry="18"/>
<text text-anchor="middle" x="131" y="-14.3" font-family="Times,serif" font-size="14.00">s1</text>
</g>
<!-- s0&#45;&gt;s1 -->
<g id="edge1" class="edge">
<title>s0&#45;&gt;s1</title>
<path fill="none" stroke="black" d="M54,-18C66.02,-18 80.49,-18 93.57,-18"/>
<polygon fill="black" stroke="black" points="93.69,-21.5 103.69,-18 93.69,-14.5 93.69,-21.5"/>
<text text-anchor="middle" x="79" y="-21.8" font-family="Times,serif" font-size="14.00">m</text>
</g>
<!-- s2 -->
<g id="node3" class="node">
<title>s2</title>
<ellipse fill="none" stroke="black" cx="231" cy="-18" rx="27" ry="18"/>
<text text-anchor="middle" x="231" y="-14.3" font-family="Times,serif" font-size="14.00">s2</text>
</g>
<!-- s1&#45;&gt;s2 -->
<g id="edge2" class="edge">
<title>s1&#45;&gt;s2</title>
<path fill="none" stroke="black" d="M158,-18C168.97,-18 181.92,-18 193.79,-18"/>
<polygon fill="black" stroke="black" points="193.87,-21.5 203.87,-18 193.87,-14.5 193.87,-21.5"/>
<text text-anchor="middle" x="181" y="-21.8" font-family="Times,serif" font-size="14.00">u</text>
</g>
<!-- s3 -->
<g id="node4" class="node">
<title>s3</title>
<ellipse fill="none" stroke="black" cx="326" cy="-18" rx="27" ry="18"/>
<text text-anchor="middle" x="326" y="-14.3" font-family="Times,serif" font-size="14.00">s3</text>
</g>
<!-- s2&#45;&gt;s3 -->
<g id="edge3" class="edge">
<title>s2&#45;&gt;s3</title>
<path fill="none" stroke="black" d="M258.4,-18C267.81,-18 278.57,-18 288.66,-18"/>
<polygon fill="black" stroke="black" points="288.85,-21.5 298.85,-18 288.85,-14.5 288.85,-21.5"/>
<text text-anchor="middle" x="278.5" y="-21.8" font-family="Times,serif" font-size="14.00">l</text>
</g>
<!-- s4 -->
<g id="node5" class="node">
<title>s4</title>
<ellipse fill="none" stroke="black" cx="422" cy="-18" rx="27" ry="18"/>
<text text-anchor="middle" x="422" y="-14.3" font-family="Times,serif" font-size="14.00">s4</text>
</g>
<!-- s3&#45;&gt;s4 -->
<g id="edge4" class="edge">
<title>s3&#45;&gt;s4</title>
<path fill="none" stroke="black" d="M353.18,-18C362.96,-18 374.25,-18 384.77,-18"/>
<polygon fill="black" stroke="black" points="384.96,-21.5 394.96,-18 384.96,-14.5 384.96,-21.5"/>
<text text-anchor="middle" x="374" y="-21.8" font-family="Times,serif" font-size="14.00">(</text>
</g>
<!-- s5 -->
<g id="node6" class="node">
<title>s5</title>
<ellipse fill="none" stroke="black" cx="555" cy="-18" rx="27" ry="18"/>
<text text-anchor="middle" x="555" y="-14.3" font-family="Times,serif" font-size="14.00">s5</text>
</g>
<!-- s4&#45;&gt;s5 -->
<g id="edge5" class="edge">
<title>s4&#45;&gt;s5</title>
<path fill="none" stroke="black" d="M449.19,-18C468.83,-18 495.94,-18 517.67,-18"/>
<polygon fill="black" stroke="black" points="517.85,-21.5 527.85,-18 517.85,-14.5 517.85,-21.5"/>
<text text-anchor="middle" x="488.5" y="-21.8" font-family="Times,serif" font-size="14.00">DIGIT</text>
</g>
<!-- s5&#45;&gt;s5 -->
<g id="edge6" class="edge">
<title>s5&#45;&gt;s5</title>
<path fill="none" stroke="black" d="M546.79,-35.41C545.25,-45.09 547.99,-54 555,-54 559.38,-54 562.09,-50.52 563.14,-45.54"/>
<polygon fill="black" stroke="black" points="566.64,-45.44 563.21,-35.41 559.64,-45.38 566.64,-45.44"/>
<text text-anchor="middle" x="555" y="-57.8" font-family="Times,serif" font-size="14.00">DIGIT</text>
</g>
<!-- s6 -->
<g id="node7" class="node">
<title>s6</title>
<ellipse fill="none" stroke="black" cx="650" cy="-18" rx="27" ry="18"/>
<text text-anchor="middle" x="650" y="-14.3" font-family="Times,serif" font-size="14.00">s6</text>
</g>
<!-- s5&#45;&gt;s6 -->
<g id="edge7" class="edge">
<title>s5&#45;&gt;s6</title>
<path fill="none" stroke="black" d="M582.4,-18C591.81,-18 602.57,-18 612.66,-18"/>
<polygon fill="black" stroke="black" points="612.85,-21.5 622.85,-18 612.85,-14.5 612.85,-21.5"/>
<text text-anchor="middle" x="602.5" y="-21.8" font-family="Times,serif" font-size="14.00">,</text>
</g>
<!-- s7 -->
<g id="node8" class="node">
<title>s7</title>
<ellipse fill="none" stroke="black" cx="783" cy="-18" rx="27" ry="18"/>
<text text-anchor="middle" x="783" y="-14.3" font-family="Times,serif" font-size="14.00">s7</text>
</g>
<!-- s6&#45;&gt;s7 -->
<g id="edge8" class="edge">
<title>s6&#45;&gt;s7</title>
<path fill="none" stroke="black" d="M677.19,-18C696.83,-18 723.94,-18 745.67,-18"/>
<polygon fill="black" stroke="black" points="745.85,-21.5 755.85,-18 745.85,-14.5 745.85,-21.5"/>
<text text-anchor="middle" x="716.5" y="-21.8" font-family="Times,serif" font-size="14.00">DIGIT</text>
</g>
<!-- s7&#45;&gt;s7 -->
<g id="edge9" class="edge">
<title>s7&#45;&gt;s7</title>
<path fill="none" stroke="black" d="M774.43,-35.41C772.83,-45.09 775.69,-54 783,-54 787.57,-54 790.4,-50.52 791.49,-45.54"/>
<polygon fill="black" stroke="black" points="794.99,-45.44 791.57,-35.41 787.99,-45.38 794.99,-45.44"/>
<text text-anchor="middle" x="783" y="-57.8" font-family="Times,serif" font-size="14.00">DIGIT</text>
</g>
<!-- s8 -->
<g id="node9" class="node">
<title>s8</title>
<ellipse fill="none" stroke="black" cx="879" cy="-18" rx="27" ry="18"/>
<text text-anchor="middle" x="879" y="-14.3" font-family="Times,serif" font-size="14.00">s8</text>
</g>
<!-- s7&#45;&gt;s8 -->
<g id="edge10" class="edge">
<title>s7&#45;&gt;s8</title>
<path fill="none" stroke="black" d="M810.18,-18C819.96,-18 831.25,-18 841.77,-18"/>
<polygon fill="black" stroke="black" points="841.96,-21.5 851.96,-18 841.96,-14.5 841.96,-21.5"/>
<text text-anchor="middle" x="831" y="-21.8" font-family="Times,serif" font-size="14.00">)</text>
</g>
</g>
</svg>
